<svg xmlns="http://www.w3.org/2000/svg" viewBox="0 0 800 300" width="800" height="300">

  <!-- ===== SKY ===== -->
  <rect width="800" height="300" fill="#42AADF"/>

  <!-- ===== CLOUDS ===== -->
  <ellipse cx="72" cy="42" rx="52" ry="21" fill="white"/>
  <ellipse cx="100" cy="31" rx="36" ry="17" fill="white"/>
  <ellipse cx="46" cy="37" rx="28" ry="15" fill="white"/>
  <ellipse cx="690" cy="28" rx="50" ry="20" fill="white" opacity="0.9"/>
  <ellipse cx="718" cy="18" rx="34" ry="16" fill="white" opacity="0.9"/>
  <ellipse cx="664" cy="24" rx="28" ry="14" fill="white" opacity="0.9"/>

  <!-- ===== AIRPLANE ===== -->
  <g transform="translate(415,52) rotate(-6)">
    <ellipse cx="0" cy="0" rx="56" ry="12" fill="white" stroke="#DDD" stroke-width="1"/>
    <path d="M-44 0 L-58 -18 L-36 -3 Z" fill="#E8E8E8"/>
    <path d="M-8 5 L-40 27 L12 13 Z" fill="#E0E0E0"/>
    <ellipse cx="-20" cy="17" rx="9" ry="5" fill="#CCC"/>
    <circle cx="8"  cy="-5" r="3" fill="#A8D4F0"/>
    <circle cx="20" cy="-6" r="3" fill="#A8D4F0"/>
    <circle cx="32" cy="-6" r="3" fill="#A8D4F0"/>
    <circle cx="44" cy="-4" r="3" fill="#A8D4F0"/>
  </g>

  <!-- ===== SPEECH BUBBLES (empty) ===== -->
  <rect x="292" y="44" width="114" height="58" fill="white" rx="10"/>
  <polygon points="308,102 320,120 334,102" fill="white"/>
  <rect x="350" y="18" width="80" height="38" fill="white" rx="8"/>
  <polygon points="364,56 374,70 386,56" fill="white"/>
  <rect x="442" y="80" width="96" height="50" fill="white" rx="9"/>
  <polygon points="456,130 466,146 480,130" fill="white"/>
  <rect x="548" y="55" width="88" height="46" fill="white" rx="9"/>
  <polygon points="560,101 570,115 583,101" fill="white"/>

  <!-- ===== BUILDINGS ===== -->
  <rect x="618" y="65"  width="56" height="193" fill="#C2D2E2" rx="3"/>
  <rect x="626" y="76"  width="11" height="10" fill="#90B4CC" rx="1"/>
  <rect x="642" y="76"  width="11" height="10" fill="#90B4CC" rx="1"/>
  <rect x="658" y="76"  width="11" height="10" fill="#90B4CC" rx="1"/>
  <rect x="626" y="94"  width="11" height="10" fill="#90B4CC" rx="1"/>
  <rect x="642" y="94"  width="11" height="10" fill="#90B4CC" rx="1"/>
  <rect x="658" y="94"  width="11" height="10" fill="#90B4CC" rx="1"/>
  <rect x="626" y="112" width="11" height="10" fill="#90B4CC" rx="1"/>
  <rect x="642" y="112" width="11" height="10" fill="#90B4CC" rx="1"/>
  <rect x="658" y="112" width="11" height="10" fill="#90B4CC" rx="1"/>
  <rect x="626" y="130" width="11" height="10" fill="#90B4CC" rx="1"/>
  <rect x="642" y="130" width="11" height="10" fill="#90B4CC" rx="1"/>
  <rect x="658" y="130" width="11" height="10" fill="#90B4CC" rx="1"/>
  <rect x="682" y="102" width="70" height="156" fill="#CED9E8" rx="3"/>
  <rect x="692" y="114" width="12" height="11" fill="#A0B8D0" rx="1"/>
  <rect x="710" y="114" width="12" height="11" fill="#A0B8D0" rx="1"/>
  <rect x="728" y="114" width="12" height="11" fill="#A0B8D0" rx="1"/>
  <rect x="692" y="134" width="12" height="11" fill="#A0B8D0" rx="1"/>
  <rect x="710" y="134" width="12" height="11" fill="#A0B8D0" rx="1"/>
  <rect x="728" y="134" width="12" height="11" fill="#A0B8D0" rx="1"/>
  <rect x="692" y="154" width="12" height="11" fill="#A0B8D0" rx="1"/>
  <rect x="710" y="154" width="12" height="11" fill="#A0B8D0" rx="1"/>
  <rect x="728" y="154" width="12" height="11" fill="#A0B8D0" rx="1"/>
  <rect x="756" y="130" width="44" height="128" fill="#BAC8D8" rx="3"/>

  <!-- ===== GROUND ===== -->
  <rect x="0"   y="256" width="800" height="44" fill="#50AE50"/>
  <rect x="0"   y="250" width="800" height="10"  fill="#60BE60"/>

  <!-- Bushes right -->
  <circle cx="498" cy="256" r="17" fill="#40A040"/>
  <circle cx="514" cy="252" r="21" fill="#40A040"/>
  <circle cx="532" cy="256" r="17" fill="#40A040"/>
  <circle cx="578" cy="258" r="15" fill="#40A040"/>
  <circle cx="593" cy="254" r="18" fill="#40A040"/>

  <!-- ===== DEVELOPER CHARACTERS ===== -->
  <!-- Dev 1 -->
  <ellipse cx="476" cy="244" rx="17" ry="23" fill="#3050B0"/>
  <circle  cx="476" cy="206" r="19"         fill="#FFD0A0"/>
  <ellipse cx="476" cy="196" rx="20" ry="9"  fill="#2A1A0A"/>
  <path d="M489 222 Q502 209 506 199" stroke="#FFD0A0" stroke-width="7" fill="none" stroke-linecap="round"/>
  <circle cx="507" cy="196" r="7" fill="#FFD0A0"/>
  <circle cx="470" cy="203" r="3" fill="#2A1A0A"/>
  <circle cx="481" cy="203" r="3" fill="#2A1A0A"/>
  <path d="M469 211 Q476 217 483 211" stroke="#BB8866" stroke-width="1.8" fill="none"/>
  <!-- Dev 2 (glasses) -->
  <ellipse cx="530" cy="246" rx="19" ry="25" fill="#B03020"/>
  <circle  cx="530" cy="208" r="21"         fill="#F0C088"/>
  <ellipse cx="530" cy="197" rx="22" ry="9"  fill="#1A0A04"/>
  <rect x="518" y="206" width="10" height="8" fill="none" stroke="#443322" stroke-width="1.8" rx="2"/>
  <rect x="532" y="206" width="10" height="8" fill="none" stroke="#443322" stroke-width="1.8" rx="2"/>
  <line x1="528" y1="210" x2="532" y2="210" stroke="#443322" stroke-width="1.5"/>
  <path d="M523 217 Q530 224 537 217" stroke="#BB8866" stroke-width="2" fill="none"/>
  <path d="M545 232 Q558 218 561 208" stroke="#F0C088" stroke-width="8" fill="none" stroke-linecap="round"/>
  <circle cx="562" cy="205" r="7" fill="#F0C088"/>
  <!-- Dev 3 -->
  <ellipse cx="585" cy="243" rx="16" ry="23" fill="#308830"/>
  <circle  cx="585" cy="207" r="18"         fill="#FFD8B0"/>
  <ellipse cx="585" cy="197" rx="19" ry="8"  fill="#0A0A0A"/>
  <path d="M597 228 Q608 217 611 208" stroke="#FFD8B0" stroke-width="7" fill="none" stroke-linecap="round"/>
  <circle cx="612" cy="205" r="6" fill="#FFD8B0"/>
  <path d="M579 213 Q585 219 591 213" stroke="#BB8866" stroke-width="1.8" fill="none"/>

  <!-- ===== RUNNING BUNNY ===== -->

  <!-- Shadow -->
  <ellipse cx="178" cy="273" rx="62" ry="9" fill="#2A88BF" opacity="0.22"/>

  <!-- BACK LEG -->
  <path d="M152 228 Q128 254 120 268" stroke="#1A1A1A" stroke-width="22" fill="none" stroke-linecap="round"/>
  <path d="M120 268 Q112 278 116 284" stroke="#1A1A1A" stroke-width="18" fill="none" stroke-linecap="round"/>
  <ellipse cx="108" cy="284" rx="23" ry="9" fill="#B8B8B8" stroke="black" stroke-width="1.5" transform="rotate(-8 108 284)"/>
  <ellipse cx="100" cy="282" rx="8"  ry="5" fill="white" opacity="0.5"/>

  <!-- TAIL -->
  <circle cx="112" cy="212" r="16" fill="white"/>
  <circle cx="112" cy="212" r="13" fill="#F4F4F4"/>

  <!-- BACK ARM -->
  <path d="M148 188 Q116 190 100 198" stroke="white" stroke-width="20" fill="none" stroke-linecap="round"/>
  <path d="M148 188 Q116 190 100 198" stroke="black" stroke-width="20" fill="none" stroke-linecap="round" opacity="0.07"/>
  <circle cx="93"  cy="202" r="13" fill="white" stroke="black" stroke-width="2"/>
  <circle cx="85"  cy="194" r="8"  fill="white" stroke="black" stroke-width="1.8"/>
  <circle cx="82"  cy="205" r="8"  fill="white" stroke="black" stroke-width="1.8"/>

  <!-- BODY / SHIRT -->
  <ellipse cx="178" cy="198" rx="57" ry="60" fill="white" stroke="black" stroke-width="2.5"/>

  <!-- PANTS lower body -->
  <path d="M134 232 Q126 256 130 276 Q134 286 150 286 Q164 284 166 268 Q168 252 176 244" fill="#1A1A1A"/>
  <path d="M222 232 Q230 256 226 276 Q222 286 206 286 Q192 284 190 268 Q188 252 180 244" fill="#1A1A1A"/>
  <!-- Front leg lower -->
  <path d="M210 244 Q224 262 228 278" stroke="#1A1A1A" stroke-width="22" fill="none" stroke-linecap="round"/>
  <!-- Front shoe -->
  <ellipse cx="233" cy="283" rx="25" ry="10" fill="#C0C0C0" stroke="black" stroke-width="1.8"/>
  <ellipse cx="222" cy="281" rx="9"  ry="6"  fill="white" opacity="0.5"/>
  <!-- Back shoe cover -->
  <ellipse cx="147" cy="285" rx="20" ry="8"  fill="#B8B8B8" stroke="black" stroke-width="1.5"/>

  <!-- LOGO: orange circle + white 8-arm asterisk -->
  <circle cx="180" cy="196" r="25" fill="#D05A24"/>
  <line x1="180" y1="179" x2="180" y2="213" stroke="white" stroke-width="4"   stroke-linecap="round"/>
  <line x1="163" y1="188" x2="197" y2="204" stroke="white" stroke-width="4"   stroke-linecap="round"/>
  <line x1="163" y1="204" x2="197" y2="188" stroke="white" stroke-width="4"   stroke-linecap="round"/>
  <line x1="170" y1="182" x2="190" y2="210" stroke="white" stroke-width="2.5" stroke-linecap="round" opacity="0.85"/>
  <line x1="190" y1="182" x2="170" y2="210" stroke="white" stroke-width="2.5" stroke-linecap="round" opacity="0.85"/>

  <!-- FRONT ARM -->
  <path d="M210 188 Q242 178 258 170" stroke="white" stroke-width="20" fill="none" stroke-linecap="round"/>
  <path d="M210 188 Q242 178 258 170" stroke="black" stroke-width="20" fill="none" stroke-linecap="round" opacity="0.07"/>
  <circle cx="264" cy="166" r="14" fill="white" stroke="black" stroke-width="2"/>
  <circle cx="272" cy="157" r="9"  fill="white" stroke="black" stroke-width="1.8"/>
  <circle cx="275" cy="168" r="9"  fill="white" stroke="black" stroke-width="1.8"/>

  <!-- EARS (drawn before head so head overlaps base) -->
  <!-- Left ear -->
  <ellipse cx="152" cy="50" rx="21" ry="52" fill="white" stroke="black" stroke-width="2.5" transform="rotate(-7 152 50)"/>
  <ellipse cx="152" cy="50" rx="12" ry="35" fill="#111111"                                 transform="rotate(-7 152 50)"/>
  <!-- Right ear -->
  <ellipse cx="204" cy="43" rx="19" ry="50" fill="white" stroke="black" stroke-width="2.5" transform="rotate(9 204 43)"/>
  <ellipse cx="204" cy="43" rx="10" ry="33" fill="#111111"                                 transform="rotate(9 204 43)"/>

  <!-- HEAD -->
  <circle cx="176" cy="110" r="58" fill="white" stroke="black" stroke-width="2.5"/>

  <!-- FACE -->
  <!-- Left eye open -->
  <circle cx="157" cy="112" r="13" fill="#1A1A1A"/>
  <circle cx="160" cy="106" r="5"  fill="white"/>
  <!-- Right eye winking -->
  <path d="M183 108 Q194 101 204 108" stroke="#1A1A1A" stroke-width="4" fill="none" stroke-linecap="round"/>
  <line x1="185" y1="108" x2="183" y2="102" stroke="#1A1A1A" stroke-width="2.2" stroke-linecap="round"/>
  <line x1="193" y1="104" x2="193" y2="98"  stroke="#1A1A1A" stroke-width="2.2" stroke-linecap="round"/>
  <line x1="201" y1="108" x2="203" y2="102" stroke="#1A1A1A" stroke-width="2.2" stroke-linecap="round"/>
  <!-- Nose -->
  <ellipse cx="171" cy="125" rx="6" ry="4.5" fill="#1A1A1A"/>
  <!-- Mouth -->
  <path d="M160 133 Q172 145 188 137" stroke="#1A1A1A" stroke-width="2.8" fill="none" stroke-linecap="round"/>
  <!-- Blush -->
  <ellipse cx="144" cy="125" rx="14" ry="9" fill="#FFB0B8" opacity="0.6"/>
  <ellipse cx="198" cy="122" rx="12" ry="8" fill="#FFB0B8" opacity="0.55"/>
  <!-- Whiskers -->
  <line x1="127" y1="120" x2="156" y2="124" stroke="#999" stroke-width="1.8" stroke-linecap="round"/>
  <line x1="125" y1="130" x2="156" y2="128" stroke="#999" stroke-width="1.8" stroke-linecap="round"/>

</svg>
