<svg width="800" height="420" viewBox="0 0 800 420" xmlns="http://www.w3.org/2000/svg" xmlns:xlink="http://www.w3.org/1999/xlink">
  <defs>
    <linearGradient id="overlay" x1="0" y1="0" x2="0" y2="1">
      <stop offset="0%" stop-color="#0A001A" stop-opacity="0.80"/>
      <stop offset="100%" stop-color="#0A001A" stop-opacity="0.88"/>
    </linearGradient>
    <style>
      .mono { font-family: 'Courier New', Courier, 'Malgun Gothic', 'Apple SD Gothic Neo', monospace; }
    </style>
  </defs>

  <!-- Background photo -->
  <image href="https://raw.githubusercontent.com/tmuchal/tmuchal/main/HA7UmbuaQAAFHJ_.jpg"
         x="0" y="0" width="800" height="420" preserveAspectRatio="xMidYMid slice"/>

  <!-- Dark overlay -->
  <rect width="800" height="420" fill="url(#overlay)"/>

  <!-- BORDER -->
  <rect x="16" y="16" width="768" height="388" fill="none" stroke="#7C3AED" stroke-width="3"/>
  <!-- corner accents -->
  <rect x="12" y="12" width="8" height="8" fill="#C084FC"/>
  <rect x="780" y="12" width="8" height="8" fill="#C084FC"/>
  <rect x="12" y="400" width="8" height="8" fill="#C084FC"/>
  <rect x="780" y="400" width="8" height="8" fill="#C084FC"/>

  <!-- HEADER -->
  <text x="32" y="52" class="mono" font-size="20" font-weight="bold" fill="#EDE9FE">▮ 우철 (uchal)</text>
  <rect x="32" y="60" width="152" height="19" fill="#3B1479"/>
  <text x="108" y="73" class="mono" font-size="11" fill="#C4B5FD" text-anchor="middle">대기업 AI Manager · PM</text>

  <!-- Divider 1 -->
  <rect x="32" y="92" width="736" height="1" fill="#6D28D9"/>

  <!-- CURRENT WORK label -->
  <text x="32" y="111" class="mono" font-size="9" fill="#6D28D9" letter-spacing="2">CURRENT WORK</text>

  <!-- Enterprise AI -->
  <text x="32" y="133" class="mono" font-size="10" fill="#A78BFA">ENTERPRISE AI</text>
  <rect x="178" y="121" width="260" height="14" fill="#1A0830"/>
  <rect x="178" y="121" width="220" height="14" fill="#7C3AED"/>
  <rect x="178" y="121" width="220" height="4"  fill="#A855F7" opacity="0.35"/>
  <text x="446" y="133" class="mono" font-size="10" fill="#8B5CF6">전사 AX 전환 설계 중</text>

  <!-- AI Chatbot -->
  <text x="32" y="163" class="mono" font-size="10" fill="#A78BFA">AI CHATBOT/AGENT</text>
  <rect x="178" y="151" width="260" height="14" fill="#1A0830"/>
  <rect x="178" y="151" width="182" height="14" fill="#6D28D9"/>
  <rect x="178" y="151" width="182" height="4"  fill="#A855F7" opacity="0.35"/>
  <text x="446" y="163" class="mono" font-size="10" fill="#8B5CF6">에이전트 굴리는 중</text>

  <!-- Voice AI -->
  <text x="32" y="193" class="mono" font-size="10" fill="#A78BFA">VOICE AI · LOUNGE</text>
  <rect x="178" y="181" width="260" height="14" fill="#1A0830"/>
  <rect x="178" y="181" width="145" height="14" fill="#5B21B6"/>
  <rect x="178" y="181" width="145" height="4"  fill="#A855F7" opacity="0.35"/>
  <text x="446" y="193" class="mono" font-size="10" fill="#8B5CF6">런칭 준비 중</text>

  <!-- Blockchain -->
  <text x="32" y="223" class="mono" font-size="10" fill="#A78BFA">BLOCKCHAIN</text>
  <rect x="178" y="211" width="260" height="14" fill="#1A0830"/>
  <rect x="178" y="211" width="109" height="14" fill="#4C1D95"/>
  <rect x="178" y="211" width="109" height="4"  fill="#A855F7" opacity="0.35"/>
  <text x="446" y="223" class="mono" font-size="10" fill="#8B5CF6">별도 빌드업 중</text>

  <!-- Divider 2 -->
  <rect x="32" y="238" width="736" height="1" fill="#6D28D9"/>

  <!-- SKILLS label -->
  <text x="32" y="257" class="mono" font-size="9" fill="#6D28D9" letter-spacing="2">SKILLS &amp; TOOLS</text>

  <!-- Planning tags (purple) -->
  <rect x="32"  y="264" width="88" height="16" fill="#2D1B69"/>
  <text x="76"  y="275" class="mono" font-size="9" fill="#C4B5FD" text-anchor="middle">Product Roadmap</text>
  <rect x="126" y="264" width="30" height="16" fill="#2D1B69"/>
  <text x="141" y="275" class="mono" font-size="9" fill="#C4B5FD" text-anchor="middle">OKR</text>
  <rect x="162" y="264" width="38" height="16" fill="#2D1B69"/>
  <text x="181" y="275" class="mono" font-size="9" fill="#C4B5FD" text-anchor="middle">Sprint</text>
  <rect x="206" y="264" width="62" height="16" fill="#2D1B69"/>
  <text x="237" y="275" class="mono" font-size="9" fill="#C4B5FD" text-anchor="middle">User Story</text>

  <!-- AI tool tags (blue) -->
  <rect x="274" y="264" width="48" height="16" fill="#1E3A5F"/>
  <text x="298" y="275" class="mono" font-size="9" fill="#7DD3FC" text-anchor="middle">ChatGPT</text>
  <rect x="328" y="264" width="38" height="16" fill="#1E3A5F"/>
  <text x="347" y="275" class="mono" font-size="9" fill="#7DD3FC" text-anchor="middle">Claude</text>
  <rect x="372" y="264" width="54" height="16" fill="#1E3A5F"/>
  <text x="399" y="275" class="mono" font-size="9" fill="#7DD3FC" text-anchor="middle">Perplexity</text>
  <rect x="432" y="264" width="40" height="16" fill="#1E3A5F"/>
  <text x="452" y="275" class="mono" font-size="9" fill="#7DD3FC" text-anchor="middle">Cursor</text>

  <!-- Blockchain tags (green) -->
  <rect x="478" y="264" width="32" height="16" fill="#064E3B"/>
  <text x="494" y="275" class="mono" font-size="9" fill="#6EE7B7" text-anchor="middle">Web3</text>
  <rect x="516" y="264" width="64" height="16" fill="#064E3B"/>
  <text x="548" y="275" class="mono" font-size="9" fill="#6EE7B7" text-anchor="middle">Tokenomics</text>
  <rect x="586" y="264" width="28" height="16" fill="#064E3B"/>
  <text x="600" y="275" class="mono" font-size="9" fill="#6EE7B7" text-anchor="middle">DAO</text>

  <!-- Collab tools (gray) -->
  <rect x="32"  y="286" width="40" height="16" fill="#1F2937"/>
  <text x="52"  y="297" class="mono" font-size="9" fill="#D1D5DB" text-anchor="middle">Notion</text>
  <rect x="78"  y="286" width="36" height="16" fill="#1F2937"/>
  <text x="96"  y="297" class="mono" font-size="9" fill="#D1D5DB" text-anchor="middle">Figma</text>
  <rect x="120" y="286" width="46" height="16" fill="#1F2937"/>
  <text x="143" y="297" class="mono" font-size="9" fill="#D1D5DB" text-anchor="middle">GitHub</text>

  <!-- Divider 3 -->
  <rect x="32" y="312" width="736" height="1" fill="#6D28D9"/>

  <!-- QUOTE -->
  <text x="32"  y="332" class="mono" font-size="10" fill="#7C3AED">›</text>
  <text x="44"  y="332" class="mono" font-size="10" fill="#7E6B9E">지식에 대한 갈망, 사람과의 만남을 통해 전략적인 결과물을 만듭니다</text>

  <!-- Divider 4 -->
  <rect x="32" y="346" width="736" height="1" fill="#4C1D95"/>

  <!-- BOTTOM -->
  <text x="400" y="369" class="mono" font-size="9" fill="#6D28D9" text-anchor="middle" letter-spacing="2">두 산업 동시에 굴리는 PM</text>
  <text x="400" y="390" class="mono" font-size="9" fill="#5B21B6" text-anchor="middle">[ AI ]  [ Enterprise ]  [ Chatbot ]  [ Agent ]  [ Voice ]  [ Blockchain ]  [ PM ]</text>
</svg>
